<?xml version="1.0" encoding="UTF-8"?>
<svg id="Layer_2" data-name="Layer 2" xmlns="http://www.w3.org/2000/svg" viewBox="0 0 186 53">
  <defs>
    <style>
      .cls-1 {
        letter-spacing: -.02em;
      }

      .cls-2 {
        letter-spacing: -.02em;
      }

      .cls-3 {
        font-family: Futura-Bold, Futura;
      }

      .cls-3, .cls-4 {
        font-size: 12px;
      }

      .cls-3, .cls-4, .cls-5 {
        fill: #e4e4e4;
      }

      .cls-6 {
        letter-spacing: -.02em;
      }

      .cls-7 {
        letter-spacing: 0em;
      }

      .cls-8 {
        fill: #fff;
      }

      .cls-9 {
        letter-spacing: .02em;
      }

      .cls-10 {
        letter-spacing: -.02em;
      }

      .cls-11 {
        letter-spacing: 0em;
      }

      .cls-12 {
        letter-spacing: 0em;
      }

      .cls-13 {
        letter-spacing: 0em;
      }

      .cls-14 {
        letter-spacing: .02em;
      }

      .cls-15 {
        opacity: .64;
        stroke: #979797;
      }

      .cls-15, .cls-16 {
        fill: none;
        stroke-miterlimit: 10;
      }

      .cls-16 {
        stroke: #e4e4e4;
      }

      .cls-4 {
        font-family: Futura-Medium, Futura;
      }

      .cls-17 {
        letter-spacing: 0em;
      }

      .cls-18 {
        letter-spacing: .01em;
      }

      .cls-19 {
        letter-spacing: -.03em;
      }

      .cls-5 {
        opacity: .4;
      }
    </style>
  </defs>
  <g id="elementos">
    <g>
      <g>
        <rect class="cls-5" x=".5" y=".5" width="185" height="52" rx="9.87" ry="9.87"/>
        <rect class="cls-15" x=".5" y=".5" width="185" height="52" rx="9.87" ry="9.87"/>
      </g>
      <text class="cls-4" transform="translate(33.13 32.17)"><tspan x="0" y="0">Disc</tspan><tspan class="cls-2" x="22.29" y="0">o</tspan><tspan class="cls-6" x="29.26" y="0">v</tspan><tspan x="35.09" y="0">er </tspan><tspan class="cls-17" x="49.92" y="0">A</tspan><tspan x="58.75" y="0">ctivities A</tspan><tspan class="cls-7" x="110.12" y="0">r</tspan><tspan x="114.5" y="0">ound </tspan><tspan class="cls-9" x="0" y="14.4">t</tspan><tspan x="3.52" y="14.4">he </tspan><tspan class="cls-1" x="20.44" y="14.4">w</tspan><tspan x="29.51" y="14.4">o</tspan><tspan class="cls-14" x="36.73" y="14.4">r</tspan><tspan x="41.4" y="14.4">ld</tspan></text>
      <text class="cls-3" transform="translate(33.13 17.17)"><tspan x="0" y="0">Disc</tspan><tspan class="cls-19" x="25.08" y="0">o</tspan><tspan class="cls-10" x="33.17" y="0">v</tspan><tspan class="cls-11" x="40.7" y="0">er </tspan><tspan class="cls-12" x="58.13" y="0">A</tspan><tspan x="67.68" y="0">c</tspan><tspan class="cls-18" x="73.56" y="0">t</tspan><tspan class="cls-13" x="78.2" y="0">i</tspan><tspan x="81.98" y="0">vi</tspan><tspan class="cls-18" x="93.47" y="0">t</tspan><tspan x="98.11" y="0">ies </tspan></text>
      <g>
        <circle class="cls-16" cx="15" cy="22" r="10.5"/>
        <path class="cls-8" d="M13.39,16.91c0-.24,.04-.46,.14-.67,.09-.21,.21-.39,.37-.55,.16-.16,.34-.28,.55-.37,.21-.09,.43-.13,.67-.13s.46,.04,.67,.13c.21,.09,.39,.21,.55,.37,.16,.16,.28,.34,.37,.55,.09,.21,.14,.43,.14,.67s-.05,.46-.14,.67c-.09,.21-.21,.39-.37,.55s-.34,.28-.55,.37c-.21,.09-.43,.13-.67,.13s-.46-.04-.67-.13c-.21-.09-.39-.21-.55-.37-.16-.16-.28-.34-.37-.55-.09-.21-.14-.43-.14-.67Zm3.26,3.32v8.65h-3.05v-8.65h3.05Z"/>
      </g>
    </g>
  </g>
</svg>